<svg width="68" height="70" viewBox="0 0 68 70" fill="none" xmlns="http://www.w3.org/2000/svg">
<path fill-rule="evenodd" clip-rule="evenodd" d="M44.4599 1.98964C41.666 0.998703 39.4841 0.471749 36.981 0.18342C34.5556 -0.0959461 31.2685 -0.0520632 29.2347 0.286901C27.3524 0.600606 25.2469 1.03036 24.3007 1.2939C20.5817 2.32977 16.0775 4.745 12.5189 7.6113C7.89245 11.3378 4.37352 16.2263 2.21678 21.9231C0.858904 25.5097 -0.00775229 29.8991 5.2276e-05 33.1508C0.00587658 35.5751 0.485449 40.682 0.707355 40.682C0.754182 40.682 1.20312 40.2011 1.70506 39.6135C2.207 39.0258 3.43826 37.647 4.44132 36.5496L6.26502 34.5541L6.33969 33.864C6.57522 31.6885 6.67226 30.9542 6.87739 29.7983C7.76653 24.7857 9.68249 20.5007 12.7327 16.703C13.6843 15.5183 16.5195 12.7208 17.5888 11.9117C20.2818 9.87358 23.7664 8.26874 27.2544 7.45974C32.4152 6.26289 37.6082 6.59976 42.6149 8.45615C46.1546 9.76871 48.4998 11.1349 51.1923 13.4528C53.4832 15.4252 55.1344 17.4586 56.9035 20.4861C58.8982 23.9 60.7182 28.7516 61.3354 32.301C61.591 33.7708 61.5168 35.636 61.1717 36.4157L60.9284 36.9651L61.5273 37.6305C61.8566 37.9963 63.0285 39.2263 64.1313 40.3639L66.1365 42.4321L66.2588 41.8772C66.3262 41.5719 66.5122 40.746 66.6724 40.0417C67.2814 37.3633 67.526 34.3132 67.3318 31.8187C66.7 23.7035 62.8995 15.7206 56.7828 9.66068C53.3548 6.26452 49.1727 3.66118 44.4599 1.98964ZM42.504 17.1399C42.214 16.1469 41.7619 15.6119 41.0648 15.4365C39.9077 15.1453 39.1612 15.2789 35.6686 16.4012C34.5965 16.7458 32.3827 17.4535 30.749 17.974C29.1153 18.4946 26.4157 19.3582 24.75 19.8933C23.0842 20.4283 21.3544 20.9805 20.9059 21.1202C19.8344 21.454 18.0641 22.5161 17.4869 23.1714C16.4296 24.3716 16.3985 24.9272 17.2197 27.9359C17.5342 29.0883 17.961 30.6597 18.1682 31.428C18.3753 32.1962 18.5913 32.9456 18.6483 33.0933C18.7233 33.2876 19.1783 33.5658 20.2948 34.1001C22.5548 35.1814 27.5581 37.5869 30.1666 38.8462C31.4159 39.4494 32.654 40.0793 32.9181 40.2461L33.3981 40.5495L33.5143 40.2956C33.5781 40.1559 33.8747 39.7704 34.1733 39.4389C34.8083 38.7338 35.5903 38.4019 36.3244 38.5258C37.3395 38.6972 38.0561 39.8153 37.6706 40.6269C37.5761 40.8257 37.0485 41.4975 36.4978 42.1196L35.4967 43.2507L35.8312 43.9743C36.1301 44.621 36.1653 44.8214 36.162 45.8619C36.1585 46.9498 36.1337 47.0712 35.7819 47.7186L35.4055 48.4112L35.7338 48.8244C36.1819 49.3885 37.7304 50.4139 38.4619 50.631C39.3375 50.8908 41.2296 50.853 44.1932 50.5165C46.6019 50.2429 46.7774 50.2065 47.3009 49.8708C47.7953 49.5538 50.4552 46.6559 52.5781 44.1212C52.956 43.6701 53.564 42.9605 53.9291 42.5444C54.841 41.5055 55.9877 39.9358 56.3342 39.2524C56.6525 38.6248 56.9237 37.781 57.3148 36.2005C57.7438 34.4672 57.6208 31.516 57.0568 30.0098C56.8105 29.3518 56.4761 28.9777 51.7691 24.0946C50.3498 22.6221 48.7534 20.9319 48.2218 20.3386C47.6902 19.7453 47.2326 19.2825 47.205 19.3101C47.1229 19.3922 47.7256 21.49 48.563 24.0364C48.9947 25.3488 49.4439 26.9203 49.5612 27.5285C49.7426 28.4682 49.8291 28.6868 50.1369 28.9835C50.8609 29.6813 51.063 29.7996 51.4669 29.761C51.8315 29.726 51.9703 29.836 53.5245 31.3906C54.9405 32.8069 55.2041 33.1266 55.2765 33.5163C55.5124 34.7845 53.9506 35.8514 52.7154 35.2656C52.5086 35.1675 51.741 34.4341 51.0093 33.6358C49.7057 32.213 49.2192 31.8379 48.6703 31.8328C48.2114 31.8285 47.443 31.4125 46.9159 30.8828C46.4756 30.4404 46.3648 30.2133 45.9893 28.9835C45.0125 25.7827 44.1211 22.7815 43.4485 20.4279C43.0552 19.0515 42.6301 17.5719 42.504 17.1399ZM32.9622 21.5307C35.4712 20.7171 38.0007 19.9301 38.4953 19.8091C39.2923 19.6141 40.4422 20.4552 40.5351 21.3009C40.5967 21.8621 40.5069 22.1116 40.097 22.518C40.0194 22.595 39.9559 22.6593 39.8876 22.7181C39.5129 23.0412 38.9968 23.2004 35.2337 24.3926C33.3758 24.9812 29.9948 26.0647 27.7204 26.8005C21.5467 28.7976 21.3587 28.8387 20.4703 28.3851C20.0663 28.1788 19.6827 27.4372 19.6833 26.8638C19.6838 26.314 20.0471 25.6999 20.4691 25.5353C20.7873 25.4112 24.4011 24.2523 28.3028 23.0229C29.424 22.6697 31.5207 21.9982 32.9622 21.5307ZM27.494 30.9933C28.0925 30.7849 32.8362 29.2604 34.1271 28.8615C35.215 28.5252 35.7104 28.5125 36.1958 28.8083C37.3002 29.4811 37.321 30.9765 36.2343 31.5801C35.6873 31.8838 29.1063 33.9903 28.3034 34.1186C27.1046 34.3102 26.1169 33.2685 26.3767 32.0864C26.484 31.5987 26.8868 31.2046 27.494 30.9933ZM40.354 34.4479C40.4547 33.7765 40.8508 33.3527 41.5542 33.1635C41.8579 33.0819 42.1736 33.0116 42.2557 33.0072C42.654 32.9864 43.314 33.4331 44.3491 34.4244C45.4258 35.4555 47.943 37.7856 48.787 38.5324C49.2962 38.9828 49.7363 39.7419 49.7358 40.1684C49.7346 41.07 48.689 41.826 47.657 41.6714C46.839 41.5488 46.5619 41.3587 44.7914 39.7066C43.8913 38.8667 42.6209 37.6922 41.9684 37.0968C40.5752 35.8255 40.2318 35.2621 40.354 34.4479ZM18.4597 37.4809C16.2304 36.4217 15.2432 36.0061 14.5574 35.8376C13.1172 35.4839 11.5814 35.7348 10.1609 36.5558C9.51382 36.9298 7.2823 39.1427 5.29539 41.3804C4.52798 42.2447 3.49929 43.3792 3.00959 43.9016C2.36309 44.5911 2.06617 45.0109 1.9258 45.433C1.73919 45.9946 1.74105 46.0328 1.97868 46.5381C2.21096 47.0318 2.60946 47.5258 5.00557 50.2903C5.55015 50.9185 6.41075 51.9339 6.91816 52.5468C7.42546 53.1595 8.37284 54.1964 9.02341 54.8509C10.441 56.2773 11.1107 56.6466 12.3253 56.6715C13.3404 56.6922 13.9793 56.3809 15.0723 55.3333C15.5256 54.8988 16.0932 54.4546 16.3336 54.3462C16.5739 54.238 16.7707 54.1004 16.7707 54.0407C16.7707 53.9809 17.0196 54.1107 17.324 54.3292C18.182 54.9451 18.6483 55.116 19.4674 55.1147C20.84 55.1126 22.2473 54.1255 22.6636 52.8729C22.9482 52.0169 22.8472 50.6811 22.4341 49.8374C21.9232 48.7938 21.472 48.5121 17.6616 46.8576C13.0152 44.84 12.0465 44.3867 11.8517 44.139C11.2054 43.3173 11.6824 41.8977 12.7837 41.365C13.7105 40.9166 13.9029 40.9752 19.3334 43.3575C24.9165 45.8067 27.0167 46.6746 27.9487 46.918C29.749 47.3881 31.5433 46.8294 31.7488 45.7349C31.8492 45.2001 31.5091 44.1353 31.0828 43.6502C30.7195 43.2368 30.3015 43.0154 26.8467 41.4063C25.8857 40.9588 24.2506 40.1945 23.213 39.7077C22.1755 39.221 20.9961 38.6703 20.5921 38.4839C20.1881 38.2976 19.2285 37.8462 18.4597 37.4809ZM62.6643 44.3098C61.4481 43.1015 60.4529 42.0528 60.4529 41.9794C60.4529 41.906 60.4005 41.846 60.3365 41.846C60.2724 41.846 60.22 41.8889 60.22 41.9416C60.22 41.9942 59.9971 42.274 59.7249 42.5635C59.4527 42.8531 58.496 43.8961 57.599 44.8814C55.9513 46.6915 55.4691 47.2151 52.9396 49.9407C49.3832 53.7729 49.1954 53.8765 45.2515 54.1807C44.2905 54.2548 43.0214 54.3646 42.4313 54.4247C40.603 54.6107 38.7028 54.5625 37.6926 54.3043C36.0433 53.8828 34.4448 52.8579 32.805 51.1706L31.8906 50.2299L31.2907 50.4266C30.9209 50.5479 30.3001 50.6254 29.6722 50.6289C29.112 50.6319 28.6534 50.6537 28.6529 50.6772C28.6517 50.7572 29.3826 51.5604 31.2621 53.5444C35.7183 58.2483 35.9955 58.4898 37.4968 58.9754C38.1727 59.194 38.467 59.2178 40.0096 59.1774C42.9352 59.1009 46.2402 59.1536 47.383 59.295C47.9787 59.3686 49.175 59.612 50.0415 59.8359C52.2361 60.4029 52.7148 60.4364 54.1743 60.1254C56.0095 59.7345 56.336 59.556 57.569 58.2709C59.703 56.0465 64.7126 50.5392 65.0829 50.0105C65.291 49.7134 65.4678 49.3394 65.4758 49.1793C65.5001 48.7016 65.2155 47.1662 65.0395 46.8244C64.9494 46.6496 63.8807 45.518 62.6643 44.3098ZM24.6917 62.0608C22.2858 61.1994 20.18 60.1263 18.2492 58.7775C17.749 58.4282 17.3297 58.1435 17.3173 58.1448C17.305 58.1462 16.9279 58.3864 16.4795 58.6787C14.5235 59.9532 13.2418 60.3803 12.0269 60.1622C11.6568 60.0957 11.2623 60.0013 11.1502 59.9524C10.6876 59.7507 11.0187 60.1638 12.3385 61.4353C16.4255 65.3728 21.5031 68.064 26.9632 69.1866C34.9729 70.8334 42.4958 69.6264 49.0685 65.64C50.2237 64.9394 51.1568 64.2593 51.5789 63.8103L51.8416 63.531L50.7598 63.4496C50.1648 63.4048 49.18 63.26 48.5714 63.1276C47.6588 62.9292 47.2401 62.8999 46.1834 62.9607C45.4787 63.0012 43.4081 63.083 41.5822 63.1426C39.7563 63.2021 37.5023 63.3313 36.5733 63.4297C32.2829 63.8842 28.5992 63.4598 24.6917 62.0608Z" fill="white"/>
</svg>
