<svg width="358" height="70" viewBox="0 0 358 70" fill="none" xmlns="http://www.w3.org/2000/svg">
<path d="M94.4545 13.5455H99.1932V24.7273C99.1932 26.0568 98.875 27.2074 98.2386 28.179C97.608 29.1449 96.7273 29.892 95.5966 30.4205C94.4659 30.9432 93.1534 31.2045 91.6591 31.2045C90.1534 31.2045 88.8352 30.9432 87.7045 30.4205C86.5739 29.892 85.6932 29.1449 85.0625 28.179C84.4375 27.2074 84.125 26.0568 84.125 24.7273V13.5455H88.8636V24.3182C88.8636 24.858 88.983 25.3409 89.2216 25.767C89.4602 26.1875 89.7898 26.517 90.2102 26.7557C90.6364 26.9943 91.1193 27.1136 91.6591 27.1136C92.2045 27.1136 92.6875 26.9943 93.108 26.7557C93.5284 26.517 93.858 26.1875 94.0966 25.767C94.3352 25.3409 94.4545 24.858 94.4545 24.3182V13.5455ZM106.218 23.6364V31H101.513V17.9091H105.979V20.3977H106.116C106.4 19.5682 106.9 18.9176 107.616 18.446C108.337 17.9744 109.178 17.7386 110.138 17.7386C111.065 17.7386 111.869 17.9517 112.55 18.3778C113.238 18.7983 113.769 19.3778 114.144 20.1165C114.525 20.8551 114.712 21.6989 114.707 22.6477V31H110.002V23.6364C110.008 22.9886 109.843 22.4801 109.508 22.1108C109.178 21.7415 108.718 21.5568 108.127 21.5568C107.741 21.5568 107.403 21.642 107.113 21.8125C106.829 21.9773 106.61 22.2159 106.457 22.5284C106.303 22.8352 106.224 23.2045 106.218 23.6364ZM117.029 31V17.9091H121.734V31H117.029ZM119.381 16.5455C118.745 16.5455 118.2 16.3352 117.745 15.9148C117.29 15.4943 117.063 14.9886 117.063 14.3977C117.063 13.8068 117.29 13.3011 117.745 12.8807C118.2 12.4602 118.745 12.25 119.381 12.25C120.023 12.25 120.569 12.4602 121.018 12.8807C121.472 13.3011 121.7 13.8068 121.7 14.3977C121.7 14.9886 121.472 15.4943 121.018 15.9148C120.569 16.3352 120.023 16.5455 119.381 16.5455ZM123.585 17.3636V13.5455H138.756V17.3636H133.506V31H128.835V17.3636H123.585ZM140.607 31V17.9091H145.312V31H140.607ZM142.96 16.5455C142.323 16.5455 141.778 16.3352 141.323 15.9148C140.869 15.4943 140.641 14.9886 140.641 14.3977C140.641 13.8068 140.869 13.3011 141.323 12.8807C141.778 12.4602 142.323 12.25 142.96 12.25C143.602 12.25 144.147 12.4602 144.596 12.8807C145.05 13.3011 145.278 13.8068 145.278 14.3977C145.278 14.9886 145.05 15.4943 144.596 15.9148C144.147 16.3352 143.602 16.5455 142.96 16.5455ZM151.766 17.9091L153.675 21.9659L155.686 17.9091H160.357L156.845 24.4545L160.527 31H155.891L153.675 26.8409L151.527 31H146.822L150.538 24.4545L147.061 17.9091H151.766Z" fill="white"/>
<path d="M88.375 53H85.233V42.8182H88.5142C89.5019 42.8182 90.3471 43.022 91.0497 43.4297C91.7524 43.834 92.291 44.4157 92.6655 45.1747C93.04 45.9304 93.2273 46.8352 93.2273 47.8892C93.2273 48.9498 93.0384 49.8629 92.6605 50.6286C92.2827 51.3909 91.7325 51.9775 91.0099 52.3885C90.2874 52.7962 89.4091 53 88.375 53ZM86.4659 51.9062H88.2955C89.1373 51.9062 89.835 51.7438 90.3885 51.419C90.942 51.0942 91.3546 50.6319 91.6264 50.032C91.8982 49.4321 92.0341 48.7178 92.0341 47.8892C92.0341 47.0672 91.8999 46.3596 91.6314 45.7663C91.3629 45.1697 90.9619 44.7124 90.4283 44.3942C89.8946 44.0727 89.2301 43.9119 88.4347 43.9119H86.4659V51.9062ZM95.1364 53V45.3636H96.3097V53H95.1364ZM95.733 44.0909C95.5043 44.0909 95.3071 44.013 95.1413 43.8572C94.9789 43.7015 94.8977 43.5142 94.8977 43.2955C94.8977 43.0767 94.9789 42.8894 95.1413 42.7337C95.3071 42.5779 95.5043 42.5 95.733 42.5C95.9616 42.5 96.1572 42.5779 96.3196 42.7337C96.4853 42.8894 96.5682 43.0767 96.5682 43.2955C96.5682 43.5142 96.4853 43.7015 96.3196 43.8572C96.1572 44.013 95.9616 44.0909 95.733 44.0909ZM103.868 47.0739L102.814 47.3722C102.747 47.1965 102.65 47.0258 102.52 46.8601C102.394 46.6911 102.222 46.5518 102.003 46.4425C101.785 46.3331 101.505 46.2784 101.163 46.2784C100.696 46.2784 100.306 46.3861 99.9949 46.6016C99.6866 46.8137 99.5325 47.0838 99.5325 47.4119C99.5325 47.7036 99.6386 47.9339 99.8507 48.103C100.063 48.272 100.394 48.4129 100.845 48.5256L101.979 48.804C102.661 48.9697 103.17 49.2232 103.505 49.5646C103.84 49.9027 104.007 50.3385 104.007 50.8722C104.007 51.3097 103.881 51.7008 103.629 52.0455C103.381 52.3902 103.032 52.6619 102.585 52.8608C102.138 53.0597 101.617 53.1591 101.024 53.1591C100.245 53.1591 99.6004 52.9901 99.09 52.652C98.5796 52.3139 98.2565 51.8201 98.1206 51.1705L99.2342 50.892C99.3403 51.303 99.5408 51.6113 99.8358 51.8168C100.134 52.0223 100.523 52.125 101.004 52.125C101.551 52.125 101.985 52.009 102.307 51.777C102.631 51.5417 102.794 51.2599 102.794 50.9318C102.794 50.6667 102.701 50.4446 102.515 50.2656C102.33 50.0833 102.045 49.9474 101.66 49.858L100.388 49.5597C99.6883 49.3939 99.1745 49.1371 98.8464 48.7891C98.5216 48.4377 98.3592 47.9986 98.3592 47.4716C98.3592 47.0407 98.4802 46.6596 98.7221 46.3281C98.9674 45.9967 99.3005 45.7365 99.7214 45.5476C100.146 45.3587 100.626 45.2642 101.163 45.2642C101.919 45.2642 102.512 45.4299 102.943 45.7614C103.377 46.0928 103.685 46.5303 103.868 47.0739ZM108.875 53.1591C108.159 53.1591 107.543 52.9901 107.026 52.652C106.509 52.3139 106.111 51.8482 105.833 51.255C105.554 50.6617 105.415 49.9839 105.415 49.2216C105.415 48.446 105.558 47.7616 105.843 47.1683C106.131 46.5717 106.532 46.1061 107.046 45.7713C107.563 45.4332 108.166 45.2642 108.855 45.2642C109.392 45.2642 109.876 45.3636 110.307 45.5625C110.738 45.7614 111.091 46.0398 111.366 46.3977C111.641 46.7557 111.812 47.1733 111.878 47.6506H110.705C110.615 47.3026 110.417 46.9943 110.108 46.7259C109.803 46.4541 109.392 46.3182 108.875 46.3182C108.418 46.3182 108.017 46.4375 107.672 46.6761C107.331 46.9115 107.064 47.2446 106.872 47.6754C106.683 48.103 106.588 48.6051 106.588 49.1818C106.588 49.7718 106.681 50.2855 106.867 50.723C107.056 51.1605 107.321 51.5002 107.662 51.7422C108.007 51.9841 108.411 52.1051 108.875 52.1051C109.18 52.1051 109.457 52.0521 109.706 51.946C109.954 51.84 110.165 51.6875 110.337 51.4886C110.509 51.2898 110.632 51.0511 110.705 50.7727H111.878C111.812 51.2235 111.648 51.6295 111.386 51.9908C111.127 52.3487 110.784 52.6338 110.357 52.8459C109.933 53.0547 109.439 53.1591 108.875 53.1591ZM116.696 53.1591C116.006 53.1591 115.401 52.995 114.881 52.6669C114.364 52.3388 113.96 51.8797 113.668 51.2898C113.38 50.6998 113.235 50.0104 113.235 49.2216C113.235 48.4261 113.38 47.7318 113.668 47.1385C113.96 46.5452 114.364 46.0845 114.881 45.7564C115.401 45.4283 116.006 45.2642 116.696 45.2642C117.385 45.2642 117.988 45.4283 118.505 45.7564C119.026 46.0845 119.43 46.5452 119.718 47.1385C120.01 47.7318 120.156 48.4261 120.156 49.2216C120.156 50.0104 120.01 50.6998 119.718 51.2898C119.43 51.8797 119.026 52.3388 118.505 52.6669C117.988 52.995 117.385 53.1591 116.696 53.1591ZM116.696 52.1051C117.219 52.1051 117.65 51.9709 117.988 51.7024C118.326 51.4339 118.577 51.081 118.739 50.6435C118.901 50.206 118.983 49.732 118.983 49.2216C118.983 48.7112 118.901 48.2356 118.739 47.7947C118.577 47.3539 118.326 46.9976 117.988 46.7259C117.65 46.4541 117.219 46.3182 116.696 46.3182C116.172 46.3182 115.741 46.4541 115.403 46.7259C115.065 46.9976 114.815 47.3539 114.652 47.7947C114.49 48.2356 114.409 48.7112 114.409 49.2216C114.409 49.732 114.49 50.206 114.652 50.6435C114.815 51.081 115.065 51.4339 115.403 51.7024C115.741 51.9709 116.172 52.1051 116.696 52.1051ZM127.918 45.3636L125.094 53H123.901L121.077 45.3636H122.35L124.458 51.4489H124.537L126.645 45.3636H127.918ZM132.395 53.1591C131.659 53.1591 131.024 52.9967 130.491 52.6719C129.96 52.3438 129.551 51.8864 129.263 51.2997C128.978 50.7098 128.835 50.0237 128.835 49.2415C128.835 48.4593 128.978 47.7699 129.263 47.1733C129.551 46.5734 129.952 46.1061 130.466 45.7713C130.983 45.4332 131.586 45.2642 132.275 45.2642C132.673 45.2642 133.066 45.3305 133.454 45.4631C133.841 45.5956 134.194 45.8111 134.513 46.1094C134.831 46.4044 135.084 46.7955 135.273 47.2827C135.462 47.7699 135.557 48.3698 135.557 49.0824V49.5795H129.67V48.5653H134.363C134.363 48.1345 134.277 47.75 134.105 47.4119C133.936 47.0739 133.694 46.8071 133.379 46.6115C133.068 46.416 132.7 46.3182 132.275 46.3182C131.808 46.3182 131.404 46.4342 131.062 46.6662C130.724 46.8949 130.464 47.1932 130.282 47.5611C130.099 47.929 130.008 48.3234 130.008 48.7443V49.4205C130.008 49.9972 130.108 50.486 130.307 50.8871C130.509 51.2848 130.789 51.5881 131.147 51.7969C131.505 52.0024 131.921 52.1051 132.395 52.1051C132.703 52.1051 132.981 52.062 133.23 51.9759C133.482 51.8864 133.699 51.7538 133.881 51.5781C134.064 51.3991 134.204 51.1771 134.304 50.9119L135.437 51.2301C135.318 51.6146 135.117 51.9527 134.836 52.2443C134.554 52.5327 134.206 52.758 133.792 52.9205C133.377 53.0795 132.912 53.1591 132.395 53.1591ZM137.341 53V45.3636H138.475V46.517H138.555C138.694 46.1392 138.946 45.8326 139.31 45.5973C139.675 45.362 140.086 45.2443 140.543 45.2443C140.629 45.2443 140.737 45.246 140.866 45.2493C140.996 45.2526 141.093 45.2576 141.16 45.2642V46.4574C141.12 46.4474 141.029 46.4325 140.886 46.4126C140.747 46.3894 140.599 46.3778 140.444 46.3778C140.073 46.3778 139.741 46.4557 139.449 46.6115C139.161 46.764 138.932 46.9761 138.763 47.2479C138.598 47.5163 138.515 47.8229 138.515 48.1676V53H137.341ZM148.735 53.179C148.251 53.179 147.812 53.0878 147.418 52.9055C147.023 52.7199 146.71 52.4531 146.478 52.1051C146.246 51.7538 146.13 51.3295 146.13 50.8324C146.13 50.3949 146.216 50.0402 146.388 49.7685C146.561 49.4934 146.791 49.2779 147.08 49.1222C147.368 48.9664 147.686 48.8504 148.034 48.7741C148.385 48.6946 148.738 48.6316 149.093 48.5852C149.557 48.5256 149.933 48.4808 150.222 48.451C150.513 48.4179 150.725 48.3632 150.858 48.2869C150.994 48.2107 151.062 48.0781 151.062 47.8892V47.8494C151.062 47.3589 150.928 46.9777 150.659 46.706C150.394 46.4342 149.991 46.2983 149.451 46.2983C148.891 46.2983 148.452 46.4209 148.134 46.6662C147.815 46.9115 147.592 47.1733 147.462 47.4517L146.349 47.054C146.548 46.59 146.813 46.2287 147.144 45.9702C147.479 45.7083 147.844 45.526 148.238 45.4233C148.636 45.3172 149.027 45.2642 149.411 45.2642C149.656 45.2642 149.938 45.294 150.256 45.3537C150.578 45.41 150.888 45.5277 151.186 45.7067C151.488 45.8857 151.738 46.1558 151.937 46.517C152.136 46.8783 152.235 47.3622 152.235 47.9688V53H151.062V51.9659H151.002C150.923 52.1316 150.79 52.3089 150.604 52.4979C150.419 52.6868 150.172 52.8475 149.864 52.9801C149.555 53.1127 149.179 53.179 148.735 53.179ZM148.914 52.125C149.378 52.125 149.769 52.0339 150.087 51.8516C150.409 51.6693 150.651 51.4339 150.813 51.1456C150.979 50.8572 151.062 50.554 151.062 50.2358V49.1619C151.012 49.2216 150.903 49.2763 150.734 49.326C150.568 49.3724 150.376 49.4138 150.157 49.4503C149.942 49.4834 149.731 49.5133 149.526 49.5398C149.323 49.563 149.159 49.5829 149.033 49.5994C148.728 49.6392 148.443 49.7038 148.178 49.7933C147.916 49.8795 147.704 50.0104 147.542 50.1861C147.383 50.3584 147.303 50.5937 147.303 50.892C147.303 51.2997 147.454 51.608 147.756 51.8168C148.061 52.0223 148.447 52.125 148.914 52.125ZM155.55 48.4062V53H154.377V45.3636H155.51V46.5568H155.61C155.789 46.169 156.06 45.8575 156.425 45.6222C156.789 45.3835 157.26 45.2642 157.837 45.2642C158.354 45.2642 158.806 45.3703 159.194 45.5824C159.582 45.7912 159.883 46.1094 160.099 46.5369C160.314 46.9612 160.422 47.4981 160.422 48.1477V53H159.249V48.2273C159.249 47.6274 159.093 47.16 158.781 46.8253C158.47 46.4872 158.042 46.3182 157.499 46.3182C157.124 46.3182 156.789 46.3994 156.494 46.5618C156.203 46.7242 155.972 46.9612 155.803 47.2727C155.634 47.5843 155.55 47.9621 155.55 48.4062ZM165.45 53.1591C164.813 53.1591 164.251 52.9983 163.764 52.6768C163.277 52.352 162.896 51.8946 162.621 51.3047C162.346 50.7114 162.208 50.0104 162.208 49.2017C162.208 48.3996 162.346 47.7036 162.621 47.1136C162.896 46.5237 163.279 46.0679 163.769 45.7464C164.26 45.425 164.826 45.2642 165.469 45.2642C165.967 45.2642 166.359 45.3471 166.648 45.5128C166.939 45.6752 167.161 45.8608 167.314 46.0696C167.47 46.2751 167.591 46.4441 167.677 46.5767H167.776V42.8182H168.95V53H167.816V51.8267H167.677C167.591 51.9659 167.468 52.1416 167.309 52.3537C167.15 52.5625 166.923 52.7498 166.628 52.9155C166.333 53.0779 165.94 53.1591 165.45 53.1591ZM165.609 52.1051C166.079 52.1051 166.477 51.9825 166.802 51.7372C167.127 51.4886 167.374 51.1456 167.543 50.7081C167.712 50.2673 167.796 49.7585 167.796 49.1818C167.796 48.6117 167.713 48.1129 167.548 47.6854C167.382 47.2545 167.137 46.9197 166.812 46.6811C166.487 46.4392 166.086 46.3182 165.609 46.3182C165.112 46.3182 164.697 46.4458 164.366 46.701C164.038 46.9529 163.791 47.2959 163.625 47.7301C163.463 48.161 163.381 48.6449 163.381 49.1818C163.381 49.7254 163.464 50.2192 163.63 50.6634C163.799 51.1042 164.048 51.4555 164.376 51.7173C164.707 51.9759 165.118 52.1051 165.609 52.1051ZM183.551 46H182.318C182.245 45.6454 182.118 45.3338 181.935 45.0653C181.756 44.7969 181.538 44.5715 181.279 44.3892C181.024 44.2036 180.741 44.0644 180.429 43.9716C180.117 43.8788 179.793 43.8324 179.455 43.8324C178.838 43.8324 178.28 43.9882 177.779 44.2997C177.282 44.6113 176.886 45.0703 176.591 45.6768C176.299 46.2834 176.153 47.0275 176.153 47.9091C176.153 48.7907 176.299 49.5348 176.591 50.1413C176.886 50.7479 177.282 51.2069 177.779 51.5185C178.28 51.83 178.838 51.9858 179.455 51.9858C179.793 51.9858 180.117 51.9394 180.429 51.8466C180.741 51.7538 181.024 51.6162 181.279 51.4339C181.538 51.2483 181.756 51.0213 181.935 50.7528C182.118 50.4811 182.245 50.1695 182.318 49.8182H183.551C183.458 50.3385 183.289 50.8042 183.044 51.2152C182.799 51.6262 182.494 51.9759 182.129 52.2642C181.765 52.5492 181.355 52.7663 180.901 52.9155C180.451 53.0646 179.968 53.1392 179.455 53.1392C178.586 53.1392 177.814 52.9271 177.138 52.5028C176.462 52.0786 175.93 51.4754 175.542 50.6932C175.154 49.911 174.96 48.983 174.96 47.9091C174.96 46.8352 175.154 45.9072 175.542 45.125C175.93 44.3428 176.462 43.7396 177.138 43.3153C177.814 42.8911 178.586 42.679 179.455 42.679C179.968 42.679 180.451 42.7536 180.901 42.9027C181.355 43.0518 181.765 43.2706 182.129 43.5589C182.494 43.844 182.799 44.192 183.044 44.603C183.289 45.0107 183.458 45.4763 183.551 46ZM188.487 53.1591C187.797 53.1591 187.192 52.995 186.672 52.6669C186.155 52.3388 185.751 51.8797 185.459 51.2898C185.171 50.6998 185.026 50.0104 185.026 49.2216C185.026 48.4261 185.171 47.7318 185.459 47.1385C185.751 46.5452 186.155 46.0845 186.672 45.7564C187.192 45.4283 187.797 45.2642 188.487 45.2642C189.176 45.2642 189.779 45.4283 190.296 45.7564C190.817 46.0845 191.221 46.5452 191.509 47.1385C191.801 47.7318 191.947 48.4261 191.947 49.2216C191.947 50.0104 191.801 50.6998 191.509 51.2898C191.221 51.8797 190.817 52.3388 190.296 52.6669C189.779 52.995 189.176 53.1591 188.487 53.1591ZM188.487 52.1051C189.01 52.1051 189.441 51.9709 189.779 51.7024C190.117 51.4339 190.368 51.081 190.53 50.6435C190.692 50.206 190.774 49.732 190.774 49.2216C190.774 48.7112 190.692 48.2356 190.53 47.7947C190.368 47.3539 190.117 46.9976 189.779 46.7259C189.441 46.4541 189.01 46.3182 188.487 46.3182C187.963 46.3182 187.532 46.4541 187.194 46.7259C186.856 46.9976 186.606 47.3539 186.443 47.7947C186.281 48.2356 186.2 48.7112 186.2 49.2216C186.2 49.732 186.281 50.206 186.443 50.6435C186.606 51.081 186.856 51.4339 187.194 51.7024C187.532 51.9709 187.963 52.1051 188.487 52.1051ZM194.911 48.4062V53H193.738V45.3636H194.871V46.5568H194.971C195.15 46.169 195.422 45.8575 195.786 45.6222C196.151 45.3835 196.621 45.2642 197.198 45.2642C197.715 45.2642 198.168 45.3703 198.555 45.5824C198.943 45.7912 199.245 46.1094 199.46 46.5369C199.676 46.9612 199.783 47.4981 199.783 48.1477V53H198.61V48.2273C198.61 47.6274 198.454 47.16 198.143 46.8253C197.831 46.4872 197.404 46.3182 196.86 46.3182C196.486 46.3182 196.151 46.3994 195.856 46.5618C195.564 46.7242 195.334 46.9612 195.165 47.2727C194.996 47.5843 194.911 47.9621 194.911 48.4062ZM203.101 48.4062V53H201.927V45.3636H203.061V46.5568H203.16C203.339 46.169 203.611 45.8575 203.976 45.6222C204.34 45.3835 204.811 45.2642 205.388 45.2642C205.905 45.2642 206.357 45.3703 206.745 45.5824C207.133 45.7912 207.434 46.1094 207.65 46.5369C207.865 46.9612 207.973 47.4981 207.973 48.1477V53H206.8V48.2273C206.8 47.6274 206.644 47.16 206.332 46.8253C206.021 46.4872 205.593 46.3182 205.05 46.3182C204.675 46.3182 204.34 46.3994 204.045 46.5618C203.754 46.7242 203.523 46.9612 203.354 47.2727C203.185 47.5843 203.101 47.9621 203.101 48.4062ZM213.319 53.1591C212.583 53.1591 211.948 52.9967 211.414 52.6719C210.884 52.3438 210.475 51.8864 210.186 51.2997C209.901 50.7098 209.759 50.0237 209.759 49.2415C209.759 48.4593 209.901 47.7699 210.186 47.1733C210.475 46.5734 210.876 46.1061 211.39 45.7713C211.907 45.4332 212.51 45.2642 213.199 45.2642C213.597 45.2642 213.99 45.3305 214.377 45.4631C214.765 45.5956 215.118 45.8111 215.436 46.1094C215.755 46.4044 216.008 46.7955 216.197 47.2827C216.386 47.7699 216.48 48.3698 216.48 49.0824V49.5795H210.594V48.5653H215.287C215.287 48.1345 215.201 47.75 215.029 47.4119C214.86 47.0739 214.618 46.8071 214.303 46.6115C213.991 46.416 213.623 46.3182 213.199 46.3182C212.732 46.3182 212.328 46.4342 211.986 46.6662C211.648 46.8949 211.388 47.1932 211.206 47.5611C211.023 47.929 210.932 48.3234 210.932 48.7443V49.4205C210.932 49.9972 211.032 50.486 211.23 50.8871C211.433 51.2848 211.713 51.5881 212.071 51.7969C212.429 52.0024 212.845 52.1051 213.319 52.1051C213.627 52.1051 213.905 52.062 214.154 51.9759C214.406 51.8864 214.623 51.7538 214.805 51.5781C214.987 51.3991 215.128 51.1771 215.228 50.9119L216.361 51.2301C216.242 51.6146 216.041 51.9527 215.76 52.2443C215.478 52.5327 215.13 52.758 214.716 52.9205C214.301 53.0795 213.836 53.1591 213.319 53.1591ZM221.368 53.1591C220.652 53.1591 220.035 52.9901 219.518 52.652C219.001 52.3139 218.603 51.8482 218.325 51.255C218.047 50.6617 217.907 49.9839 217.907 49.2216C217.907 48.446 218.05 47.7616 218.335 47.1683C218.623 46.5717 219.024 46.1061 219.538 45.7713C220.055 45.4332 220.658 45.2642 221.348 45.2642C221.885 45.2642 222.368 45.3636 222.799 45.5625C223.23 45.7614 223.583 46.0398 223.858 46.3977C224.133 46.7557 224.304 47.1733 224.37 47.6506H223.197C223.108 47.3026 222.909 46.9943 222.6 46.7259C222.296 46.4541 221.885 46.3182 221.368 46.3182C220.91 46.3182 220.509 46.4375 220.164 46.6761C219.823 46.9115 219.556 47.2446 219.364 47.6754C219.175 48.103 219.081 48.6051 219.081 49.1818C219.081 49.7718 219.173 50.2855 219.359 50.723C219.548 51.1605 219.813 51.5002 220.154 51.7422C220.499 51.9841 220.904 52.1051 221.368 52.1051C221.672 52.1051 221.949 52.0521 222.198 51.946C222.446 51.84 222.657 51.6875 222.829 51.4886C223.002 51.2898 223.124 51.0511 223.197 50.7727H224.37C224.304 51.2235 224.14 51.6295 223.878 51.9908C223.62 52.3487 223.277 52.6338 222.849 52.8459C222.425 53.0547 221.931 53.1591 221.368 53.1591ZM229.407 45.3636V46.358H225.449V45.3636H229.407ZM226.603 43.5341H227.776V50.8125C227.776 51.1439 227.824 51.3925 227.92 51.5582C228.02 51.7206 228.145 51.83 228.298 51.8864C228.454 51.9394 228.618 51.9659 228.79 51.9659C228.919 51.9659 229.025 51.9593 229.108 51.946C229.191 51.9295 229.257 51.9162 229.307 51.9062L229.546 52.9602C229.466 52.9901 229.355 53.0199 229.213 53.0497C229.07 53.0829 228.89 53.0994 228.671 53.0994C228.339 53.0994 228.015 53.0282 227.696 52.8857C227.382 52.7431 227.12 52.526 226.911 52.2344C226.705 51.9427 226.603 51.5748 226.603 51.1307V43.5341ZM238.211 53.1591C237.522 53.1591 236.917 52.995 236.397 52.6669C235.88 52.3388 235.475 51.8797 235.184 51.2898C234.895 50.6998 234.751 50.0104 234.751 49.2216C234.751 48.4261 234.895 47.7318 235.184 47.1385C235.475 46.5452 235.88 46.0845 236.397 45.7564C236.917 45.4283 237.522 45.2642 238.211 45.2642C238.901 45.2642 239.504 45.4283 240.021 45.7564C240.541 46.0845 240.946 46.5452 241.234 47.1385C241.526 47.7318 241.672 48.4261 241.672 49.2216C241.672 50.0104 241.526 50.6998 241.234 51.2898C240.946 51.8797 240.541 52.3388 240.021 52.6669C239.504 52.995 238.901 53.1591 238.211 53.1591ZM238.211 52.1051C238.735 52.1051 239.166 51.9709 239.504 51.7024C239.842 51.4339 240.092 51.081 240.255 50.6435C240.417 50.206 240.498 49.732 240.498 49.2216C240.498 48.7112 240.417 48.2356 240.255 47.7947C240.092 47.3539 239.842 46.9976 239.504 46.7259C239.166 46.4541 238.735 46.3182 238.211 46.3182C237.688 46.3182 237.257 46.4541 236.919 46.7259C236.581 46.9976 236.33 47.3539 236.168 47.7947C236.006 48.2356 235.924 48.7112 235.924 49.2216C235.924 49.732 236.006 50.206 236.168 50.6435C236.33 51.081 236.581 51.4339 236.919 51.7024C237.257 51.9709 237.688 52.1051 238.211 52.1051ZM244.636 48.4062V53H243.463V45.3636H244.596V46.5568H244.695C244.874 46.169 245.146 45.8575 245.511 45.6222C245.875 45.3835 246.346 45.2642 246.923 45.2642C247.44 45.2642 247.892 45.3703 248.28 45.5824C248.668 45.7912 248.969 46.1094 249.185 46.5369C249.4 46.9612 249.508 47.4981 249.508 48.1477V53H248.335V48.2273C248.335 47.6274 248.179 47.16 247.867 46.8253C247.556 46.4872 247.128 46.3182 246.585 46.3182C246.21 46.3182 245.875 46.3994 245.58 46.5618C245.289 46.7242 245.058 46.9612 244.889 47.2727C244.72 47.5843 244.636 47.9621 244.636 48.4062ZM263.942 46H262.709C262.636 45.6454 262.508 45.3338 262.326 45.0653C262.147 44.7969 261.928 44.5715 261.67 44.3892C261.415 44.2036 261.131 44.0644 260.82 43.9716C260.508 43.8788 260.183 43.8324 259.845 43.8324C259.229 43.8324 258.67 43.9882 258.17 44.2997C257.673 44.6113 257.277 45.0703 256.982 45.6768C256.69 46.2834 256.544 47.0275 256.544 47.9091C256.544 48.7907 256.69 49.5348 256.982 50.1413C257.277 50.7479 257.673 51.2069 258.17 51.5185C258.67 51.83 259.229 51.9858 259.845 51.9858C260.183 51.9858 260.508 51.9394 260.82 51.8466C261.131 51.7538 261.415 51.6162 261.67 51.4339C261.928 51.2483 262.147 51.0213 262.326 50.7528C262.508 50.4811 262.636 50.1695 262.709 49.8182H263.942C263.849 50.3385 263.68 50.8042 263.435 51.2152C263.189 51.6262 262.884 51.9759 262.52 52.2642C262.155 52.5492 261.746 52.7663 261.292 52.9155C260.841 53.0646 260.359 53.1392 259.845 53.1392C258.977 53.1392 258.205 52.9271 257.528 52.5028C256.852 52.0786 256.32 51.4754 255.933 50.6932C255.545 49.911 255.351 48.983 255.351 47.9091C255.351 46.8352 255.545 45.9072 255.933 45.125C256.32 44.3428 256.852 43.7396 257.528 43.3153C258.205 42.8911 258.977 42.679 259.845 42.679C260.359 42.679 260.841 42.7536 261.292 42.9027C261.746 43.0518 262.155 43.2706 262.52 43.5589C262.884 43.844 263.189 44.192 263.435 44.603C263.68 45.0107 263.849 45.4763 263.942 46ZM268.022 53.179C267.538 53.179 267.099 53.0878 266.705 52.9055C266.31 52.7199 265.997 52.4531 265.765 52.1051C265.533 51.7538 265.417 51.3295 265.417 50.8324C265.417 50.3949 265.503 50.0402 265.676 49.7685C265.848 49.4934 266.078 49.2779 266.367 49.1222C266.655 48.9664 266.973 48.8504 267.321 48.7741C267.673 48.6946 268.026 48.6316 268.38 48.5852C268.844 48.5256 269.22 48.4808 269.509 48.451C269.8 48.4179 270.012 48.3632 270.145 48.2869C270.281 48.2107 270.349 48.0781 270.349 47.8892V47.8494C270.349 47.3589 270.215 46.9777 269.946 46.706C269.681 46.4342 269.278 46.2983 268.738 46.2983C268.178 46.2983 267.739 46.4209 267.421 46.6662C267.102 46.9115 266.879 47.1733 266.749 47.4517L265.636 47.054C265.835 46.59 266.1 46.2287 266.431 45.9702C266.766 45.7083 267.131 45.526 267.525 45.4233C267.923 45.3172 268.314 45.2642 268.698 45.2642C268.944 45.2642 269.225 45.294 269.544 45.3537C269.865 45.41 270.175 45.5277 270.473 45.7067C270.775 45.8857 271.025 46.1558 271.224 46.517C271.423 46.8783 271.522 47.3622 271.522 47.9688V53H270.349V51.9659H270.289C270.21 52.1316 270.077 52.3089 269.892 52.4979C269.706 52.6868 269.459 52.8475 269.151 52.9801C268.843 53.1127 268.466 53.179 268.022 53.179ZM268.201 52.125C268.665 52.125 269.056 52.0339 269.374 51.8516C269.696 51.6693 269.938 51.4339 270.1 51.1456C270.266 50.8572 270.349 50.554 270.349 50.2358V49.1619C270.299 49.2216 270.19 49.2763 270.021 49.326C269.855 49.3724 269.663 49.4138 269.444 49.4503C269.229 49.4834 269.018 49.5133 268.813 49.5398C268.61 49.563 268.446 49.5829 268.32 49.5994C268.016 49.6392 267.731 49.7038 267.465 49.7933C267.204 49.8795 266.991 50.0104 266.829 50.1861C266.67 50.3584 266.59 50.5937 266.59 50.892C266.59 51.2997 266.741 51.608 267.043 51.8168C267.348 52.0223 267.734 52.125 268.201 52.125ZM273.664 53V45.3636H274.797V46.5568H274.897C275.056 46.1491 275.313 45.8326 275.667 45.6072C276.022 45.3786 276.448 45.2642 276.945 45.2642C277.449 45.2642 277.868 45.3786 278.203 45.6072C278.541 45.8326 278.804 46.1491 278.993 46.5568H279.073C279.268 46.1624 279.562 45.8492 279.953 45.6172C280.344 45.3819 280.813 45.2642 281.36 45.2642C282.042 45.2642 282.601 45.478 283.035 45.9055C283.469 46.3298 283.686 46.991 283.686 47.8892V53H282.513V47.8892C282.513 47.3258 282.359 46.9231 282.051 46.6811C281.743 46.4392 281.38 46.3182 280.962 46.3182C280.425 46.3182 280.009 46.4806 279.714 46.8054C279.419 47.1269 279.272 47.5346 279.272 48.0284V53H278.078V47.7699C278.078 47.3357 277.938 46.986 277.656 46.7209C277.374 46.4524 277.011 46.3182 276.567 46.3182C276.262 46.3182 275.977 46.3994 275.712 46.5618C275.45 46.7242 275.238 46.9496 275.076 47.2379C274.917 47.523 274.837 47.8527 274.837 48.2273V53H273.664ZM285.832 55.8636V45.3636H286.965V46.5767H287.104C287.191 46.4441 287.31 46.2751 287.462 46.0696C287.618 45.8608 287.84 45.6752 288.129 45.5128C288.42 45.3471 288.815 45.2642 289.312 45.2642C289.955 45.2642 290.522 45.425 291.012 45.7464C291.503 46.0679 291.885 46.5237 292.161 47.1136C292.436 47.7036 292.573 48.3996 292.573 49.2017C292.573 50.0104 292.436 50.7114 292.161 51.3047C291.885 51.8946 291.504 52.352 291.017 52.6768C290.53 52.9983 289.968 53.1591 289.332 53.1591C288.841 53.1591 288.448 53.0779 288.153 52.9155C287.858 52.7498 287.631 52.5625 287.472 52.3537C287.313 52.1416 287.191 51.9659 287.104 51.8267H287.005V55.8636H285.832ZM286.985 49.1818C286.985 49.7585 287.07 50.2673 287.239 50.7081C287.408 51.1456 287.655 51.4886 287.979 51.7372C288.304 51.9825 288.702 52.1051 289.173 52.1051C289.663 52.1051 290.072 51.9759 290.401 51.7173C290.732 51.4555 290.981 51.1042 291.146 50.6634C291.315 50.2192 291.4 49.7254 291.4 49.1818C291.4 48.6449 291.317 48.161 291.151 47.7301C290.989 47.2959 290.742 46.9529 290.411 46.701C290.082 46.4458 289.67 46.3182 289.173 46.3182C288.695 46.3182 288.294 46.4392 287.969 46.6811C287.645 46.9197 287.399 47.2545 287.234 47.6854C287.068 48.1129 286.985 48.6117 286.985 49.1818ZM299.175 49.8778V45.3636H300.349V53H299.175V51.7074H299.096C298.917 52.0952 298.638 52.425 298.261 52.6967C297.883 52.9652 297.406 53.0994 296.829 53.0994C296.352 53.0994 295.927 52.995 295.556 52.7862C295.185 52.5741 294.893 52.2559 294.681 51.8317C294.469 51.4041 294.363 50.8655 294.363 50.2159V45.3636H295.536V50.1364C295.536 50.6932 295.692 51.1373 296.004 51.4688C296.318 51.8002 296.719 51.9659 297.207 51.9659C297.498 51.9659 297.795 51.8913 298.097 51.7422C298.402 51.593 298.657 51.3643 298.862 51.0561C299.071 50.7479 299.175 50.3551 299.175 49.8778ZM307.907 47.0739L306.853 47.3722C306.787 47.1965 306.689 47.0258 306.559 46.8601C306.434 46.6911 306.261 46.5518 306.042 46.4425C305.824 46.3331 305.544 46.2784 305.202 46.2784C304.735 46.2784 304.345 46.3861 304.034 46.6016C303.726 46.8137 303.572 47.0838 303.572 47.4119C303.572 47.7036 303.678 47.9339 303.89 48.103C304.102 48.272 304.433 48.4129 304.884 48.5256L306.018 48.804C306.7 48.9697 307.209 49.2232 307.544 49.5646C307.879 49.9027 308.046 50.3385 308.046 50.8722C308.046 51.3097 307.92 51.7008 307.668 52.0455C307.42 52.3902 307.072 52.6619 306.624 52.8608C306.177 53.0597 305.656 53.1591 305.063 53.1591C304.284 53.1591 303.64 52.9901 303.129 52.652C302.619 52.3139 302.296 51.8201 302.16 51.1705L303.273 50.892C303.379 51.303 303.58 51.6113 303.875 51.8168C304.173 52.0223 304.563 52.125 305.043 52.125C305.59 52.125 306.024 52.009 306.346 51.777C306.671 51.5417 306.833 51.2599 306.833 50.9318C306.833 50.6667 306.74 50.4446 306.555 50.2656C306.369 50.0833 306.084 49.9474 305.699 49.858L304.427 49.5597C303.727 49.3939 303.214 49.1371 302.885 48.7891C302.561 48.4377 302.398 47.9986 302.398 47.4716C302.398 47.0407 302.519 46.6596 302.761 46.3281C303.006 45.9967 303.34 45.7365 303.76 45.5476C304.185 45.3587 304.665 45.2642 305.202 45.2642C305.958 45.2642 306.551 45.4299 306.982 45.7614C307.416 46.0928 307.724 46.5303 307.907 47.0739ZM313.909 53V42.8182H320.054V43.9119H315.142V47.3523H319.735V48.446H315.142V51.9062H320.133V53H313.909ZM328.361 45.3636L325.537 53H324.344L321.52 45.3636H322.793L324.901 51.4489H324.98L327.088 45.3636H328.361ZM332.838 53.1591C332.102 53.1591 331.468 52.9967 330.934 52.6719C330.404 52.3438 329.994 51.8864 329.706 51.2997C329.421 50.7098 329.278 50.0237 329.278 49.2415C329.278 48.4593 329.421 47.7699 329.706 47.1733C329.994 46.5734 330.395 46.1061 330.909 45.7713C331.426 45.4332 332.029 45.2642 332.719 45.2642C333.116 45.2642 333.509 45.3305 333.897 45.4631C334.285 45.5956 334.638 45.8111 334.956 46.1094C335.274 46.4044 335.528 46.7955 335.717 47.2827C335.906 47.7699 336 48.3698 336 49.0824V49.5795H330.114V48.5653H334.807C334.807 48.1345 334.721 47.75 334.548 47.4119C334.379 47.0739 334.137 46.8071 333.822 46.6115C333.511 46.416 333.143 46.3182 332.719 46.3182C332.251 46.3182 331.847 46.4342 331.506 46.6662C331.168 46.8949 330.907 47.1932 330.725 47.5611C330.543 47.929 330.452 48.3234 330.452 48.7443V49.4205C330.452 49.9972 330.551 50.486 330.75 50.8871C330.952 51.2848 331.232 51.5881 331.59 51.7969C331.948 52.0024 332.364 52.1051 332.838 52.1051C333.146 52.1051 333.425 52.062 333.673 51.9759C333.925 51.8864 334.142 51.7538 334.325 51.5781C334.507 51.3991 334.648 51.1771 334.747 50.9119L335.881 51.2301C335.761 51.6146 335.561 51.9527 335.279 52.2443C334.997 52.5327 334.649 52.758 334.235 52.9205C333.821 53.0795 333.355 53.1591 332.838 53.1591ZM338.958 48.4062V53H337.785V45.3636H338.918V46.5568H339.018C339.197 46.169 339.469 45.8575 339.833 45.6222C340.198 45.3835 340.668 45.2642 341.245 45.2642C341.762 45.2642 342.214 45.3703 342.602 45.5824C342.99 45.7912 343.292 46.1094 343.507 46.5369C343.723 46.9612 343.83 47.4981 343.83 48.1477V53H342.657V48.2273C342.657 47.6274 342.501 47.16 342.19 46.8253C341.878 46.4872 341.451 46.3182 340.907 46.3182C340.532 46.3182 340.198 46.3994 339.903 46.5618C339.611 46.7242 339.381 46.9612 339.212 47.2727C339.043 47.5843 338.958 47.9621 338.958 48.4062ZM349.295 45.3636V46.358H345.338V45.3636H349.295ZM346.491 43.5341H347.665V50.8125C347.665 51.1439 347.713 51.3925 347.809 51.5582C347.908 51.7206 348.034 51.83 348.187 51.8864C348.342 51.9394 348.506 51.9659 348.679 51.9659C348.808 51.9659 348.914 51.9593 348.997 51.946C349.08 51.9295 349.146 51.9162 349.196 51.9062L349.434 52.9602C349.355 52.9901 349.244 53.0199 349.101 53.0497C348.959 53.0829 348.778 53.0994 348.559 53.0994C348.228 53.0994 347.903 53.0282 347.585 52.8857C347.27 52.7431 347.008 52.526 346.8 52.2344C346.594 51.9427 346.491 51.5748 346.491 51.1307V43.5341ZM356.333 47.0739L355.279 47.3722C355.212 47.1965 355.115 47.0258 354.985 46.8601C354.859 46.6911 354.687 46.5518 354.468 46.4425C354.249 46.3331 353.969 46.2784 353.628 46.2784C353.161 46.2784 352.771 46.3861 352.46 46.6016C352.151 46.8137 351.997 47.0838 351.997 47.4119C351.997 47.7036 352.103 47.9339 352.316 48.103C352.528 48.272 352.859 48.4129 353.31 48.5256L354.443 48.804C355.126 48.9697 355.635 49.2232 355.97 49.5646C356.304 49.9027 356.472 50.3385 356.472 50.8722C356.472 51.3097 356.346 51.7008 356.094 52.0455C355.845 52.3902 355.497 52.6619 355.05 52.8608C354.602 53.0597 354.082 53.1591 353.489 53.1591C352.71 53.1591 352.065 52.9901 351.555 52.652C351.044 52.3139 350.721 51.8201 350.585 51.1705L351.699 50.892C351.805 51.303 352.006 51.6113 352.301 51.8168C352.599 52.0223 352.988 52.125 353.469 52.125C354.016 52.125 354.45 52.009 354.771 51.777C355.096 51.5417 355.259 51.2599 355.259 50.9318C355.259 50.6667 355.166 50.4446 354.98 50.2656C354.795 50.0833 354.51 49.9474 354.125 49.858L352.852 49.5597C352.153 49.3939 351.639 49.1371 351.311 48.7891C350.986 48.4377 350.824 47.9986 350.824 47.4716C350.824 47.0407 350.945 46.6596 351.187 46.3281C351.432 45.9967 351.765 45.7365 352.186 45.5476C352.61 45.3587 353.091 45.2642 353.628 45.2642C354.384 45.2642 354.977 45.4299 355.408 45.7614C355.842 46.0928 356.15 46.5303 356.333 47.0739Z" fill="white"/>
<path fill-rule="evenodd" clip-rule="evenodd" d="M44.4599 1.98964C41.666 0.998703 39.4841 0.471749 36.981 0.18342C34.5556 -0.0959461 31.2685 -0.0520632 29.2347 0.286901C27.3524 0.600606 25.2469 1.03036 24.3007 1.2939C20.5817 2.32977 16.0775 4.745 12.5189 7.6113C7.89245 11.3378 4.37352 16.2263 2.21678 21.9231C0.858904 25.5097 -0.00775229 29.8991 5.2276e-05 33.1508C0.00587658 35.5751 0.485449 40.682 0.707355 40.682C0.754182 40.682 1.20312 40.2011 1.70506 39.6135C2.207 39.0258 3.43826 37.647 4.44132 36.5496L6.26502 34.5541L6.33969 33.864C6.57522 31.6885 6.67226 30.9542 6.87739 29.7983C7.76653 24.7857 9.68249 20.5007 12.7327 16.703C13.6843 15.5183 16.5195 12.7208 17.5888 11.9117C20.2818 9.87358 23.7664 8.26874 27.2544 7.45974C32.4152 6.26289 37.6082 6.59976 42.6149 8.45615C46.1546 9.76871 48.4998 11.1349 51.1923 13.4528C53.4832 15.4252 55.1344 17.4586 56.9035 20.4861C58.8982 23.9 60.7182 28.7516 61.3354 32.301C61.591 33.7708 61.5168 35.636 61.1717 36.4157L60.9284 36.9651L61.5273 37.6305C61.8566 37.9963 63.0285 39.2263 64.1313 40.3639L66.1365 42.4321L66.2588 41.8772C66.3262 41.5719 66.5122 40.746 66.6724 40.0417C67.2814 37.3633 67.526 34.3132 67.3318 31.8187C66.7 23.7035 62.8995 15.7206 56.7828 9.66068C53.3548 6.26452 49.1727 3.66118 44.4599 1.98964ZM42.504 17.1399C42.214 16.1469 41.7619 15.6119 41.0648 15.4365C39.9077 15.1453 39.1612 15.2789 35.6686 16.4012C34.5965 16.7458 32.3827 17.4535 30.749 17.974C29.1153 18.4946 26.4157 19.3582 24.75 19.8933C23.0842 20.4283 21.3544 20.9805 20.9059 21.1202C19.8344 21.454 18.0641 22.5161 17.4869 23.1714C16.4296 24.3716 16.3985 24.9272 17.2197 27.9359C17.5342 29.0883 17.961 30.6597 18.1682 31.428C18.3753 32.1962 18.5913 32.9456 18.6483 33.0933C18.7233 33.2876 19.1783 33.5658 20.2948 34.1001C22.5548 35.1814 27.5581 37.5869 30.1666 38.8462C31.4159 39.4494 32.654 40.0793 32.9181 40.2461L33.3981 40.5495L33.5143 40.2956C33.5781 40.1559 33.8747 39.7704 34.1733 39.4389C34.8083 38.7338 35.5903 38.4019 36.3244 38.5258C37.3395 38.6972 38.0561 39.8153 37.6706 40.6269C37.5761 40.8257 37.0485 41.4975 36.4978 42.1196L35.4967 43.2507L35.8312 43.9743C36.1301 44.621 36.1653 44.8214 36.162 45.8619C36.1585 46.9498 36.1337 47.0712 35.7819 47.7186L35.4055 48.4112L35.7338 48.8244C36.1819 49.3885 37.7304 50.4139 38.4619 50.631C39.3375 50.8908 41.2296 50.853 44.1932 50.5165C46.6019 50.2429 46.7774 50.2065 47.3009 49.8708C47.7953 49.5538 50.4552 46.6559 52.5781 44.1212C52.956 43.6701 53.564 42.9605 53.9291 42.5444C54.841 41.5055 55.9877 39.9358 56.3342 39.2524C56.6525 38.6248 56.9237 37.781 57.3148 36.2005C57.7438 34.4672 57.6208 31.516 57.0568 30.0098C56.8105 29.3518 56.4761 28.9777 51.7691 24.0946C50.3498 22.6221 48.7534 20.9319 48.2218 20.3386C47.6902 19.7453 47.2326 19.2825 47.205 19.3101C47.1229 19.3922 47.7256 21.49 48.563 24.0364C48.9947 25.3488 49.4439 26.9203 49.5612 27.5285C49.7426 28.4682 49.8291 28.6868 50.1369 28.9835C50.8609 29.6813 51.063 29.7996 51.4669 29.761C51.8315 29.726 51.9703 29.836 53.5245 31.3906C54.9405 32.8069 55.2041 33.1266 55.2765 33.5163C55.5124 34.7845 53.9506 35.8514 52.7154 35.2656C52.5086 35.1675 51.741 34.4341 51.0093 33.6358C49.7057 32.213 49.2192 31.8379 48.6703 31.8328C48.2114 31.8285 47.443 31.4125 46.9159 30.8828C46.4756 30.4404 46.3648 30.2133 45.9893 28.9835C45.0125 25.7827 44.1211 22.7815 43.4485 20.4279C43.0552 19.0515 42.6301 17.5719 42.504 17.1399ZM32.9622 21.5307C35.4712 20.7171 38.0007 19.9301 38.4953 19.8091C39.2923 19.6141 40.4422 20.4552 40.5351 21.3009C40.5967 21.8621 40.5069 22.1116 40.097 22.518C40.0194 22.595 39.9559 22.6593 39.8876 22.7181C39.5129 23.0412 38.9968 23.2004 35.2337 24.3926C33.3758 24.9812 29.9948 26.0647 27.7204 26.8005C21.5467 28.7976 21.3587 28.8387 20.4703 28.3851C20.0663 28.1788 19.6827 27.4372 19.6833 26.8638C19.6838 26.314 20.0471 25.6999 20.4691 25.5353C20.7873 25.4112 24.4011 24.2523 28.3028 23.0229C29.424 22.6697 31.5207 21.9982 32.9622 21.5307ZM27.494 30.9933C28.0925 30.7849 32.8362 29.2604 34.1271 28.8615C35.215 28.5252 35.7104 28.5125 36.1958 28.8083C37.3002 29.4811 37.321 30.9765 36.2343 31.5801C35.6873 31.8838 29.1063 33.9903 28.3034 34.1186C27.1046 34.3102 26.1169 33.2685 26.3767 32.0864C26.484 31.5987 26.8868 31.2046 27.494 30.9933ZM40.354 34.4479C40.4547 33.7765 40.8508 33.3527 41.5542 33.1635C41.8579 33.0819 42.1736 33.0116 42.2557 33.0072C42.654 32.9864 43.314 33.4331 44.3491 34.4244C45.4258 35.4555 47.943 37.7856 48.787 38.5324C49.2962 38.9828 49.7363 39.7419 49.7358 40.1684C49.7346 41.07 48.689 41.826 47.657 41.6714C46.839 41.5488 46.5619 41.3587 44.7914 39.7066C43.8913 38.8667 42.6209 37.6922 41.9684 37.0968C40.5752 35.8255 40.2318 35.2621 40.354 34.4479ZM18.4597 37.4809C16.2304 36.4217 15.2432 36.0061 14.5574 35.8376C13.1172 35.4839 11.5814 35.7348 10.1609 36.5558C9.51382 36.9298 7.2823 39.1427 5.29539 41.3804C4.52798 42.2447 3.49929 43.3792 3.00959 43.9016C2.36309 44.5911 2.06617 45.0109 1.9258 45.433C1.73919 45.9946 1.74105 46.0328 1.97868 46.5381C2.21096 47.0318 2.60946 47.5258 5.00557 50.2903C5.55015 50.9185 6.41075 51.9339 6.91816 52.5468C7.42546 53.1595 8.37284 54.1964 9.02341 54.8509C10.441 56.2773 11.1107 56.6466 12.3253 56.6715C13.3404 56.6922 13.9793 56.3809 15.0723 55.3333C15.5256 54.8988 16.0932 54.4546 16.3336 54.3462C16.5739 54.238 16.7707 54.1004 16.7707 54.0407C16.7707 53.9809 17.0196 54.1107 17.324 54.3292C18.182 54.9451 18.6483 55.116 19.4674 55.1147C20.84 55.1126 22.2473 54.1255 22.6636 52.8729C22.9482 52.0169 22.8472 50.6811 22.4341 49.8374C21.9232 48.7938 21.472 48.5121 17.6616 46.8576C13.0152 44.84 12.0465 44.3867 11.8517 44.139C11.2054 43.3173 11.6824 41.8977 12.7837 41.365C13.7105 40.9166 13.9029 40.9752 19.3334 43.3575C24.9165 45.8067 27.0167 46.6746 27.9487 46.918C29.749 47.3881 31.5433 46.8294 31.7488 45.7349C31.8492 45.2001 31.5091 44.1353 31.0828 43.6502C30.7195 43.2368 30.3015 43.0154 26.8467 41.4063C25.8857 40.9588 24.2506 40.1945 23.213 39.7077C22.1755 39.221 20.9961 38.6703 20.5921 38.4839C20.1881 38.2976 19.2285 37.8462 18.4597 37.4809ZM62.6643 44.3098C61.4481 43.1015 60.4529 42.0528 60.4529 41.9794C60.4529 41.906 60.4005 41.846 60.3365 41.846C60.2724 41.846 60.22 41.8889 60.22 41.9416C60.22 41.9942 59.9971 42.274 59.7249 42.5635C59.4527 42.8531 58.496 43.8961 57.599 44.8814C55.9513 46.6915 55.4691 47.2151 52.9396 49.9407C49.3832 53.7729 49.1954 53.8765 45.2515 54.1807C44.2905 54.2548 43.0214 54.3646 42.4313 54.4247C40.603 54.6107 38.7028 54.5625 37.6926 54.3043C36.0433 53.8828 34.4448 52.8579 32.805 51.1706L31.8906 50.2299L31.2907 50.4266C30.9209 50.5479 30.3001 50.6254 29.6722 50.6289C29.112 50.6319 28.6534 50.6537 28.6529 50.6772C28.6517 50.7572 29.3826 51.5604 31.2621 53.5444C35.7183 58.2483 35.9955 58.4898 37.4968 58.9754C38.1727 59.194 38.467 59.2178 40.0096 59.1774C42.9352 59.1009 46.2402 59.1536 47.383 59.295C47.9787 59.3686 49.175 59.612 50.0415 59.8359C52.2361 60.4029 52.7148 60.4364 54.1743 60.1254C56.0095 59.7345 56.336 59.556 57.569 58.2709C59.703 56.0465 64.7126 50.5392 65.0829 50.0105C65.291 49.7134 65.4678 49.3394 65.4758 49.1793C65.5001 48.7016 65.2155 47.1662 65.0395 46.8244C64.9494 46.6496 63.8807 45.518 62.6643 44.3098ZM24.6917 62.0608C22.2858 61.1994 20.18 60.1263 18.2492 58.7775C17.749 58.4282 17.3297 58.1435 17.3173 58.1448C17.305 58.1462 16.9279 58.3864 16.4795 58.6787C14.5235 59.9532 13.2418 60.3803 12.0269 60.1622C11.6568 60.0957 11.2623 60.0013 11.1502 59.9524C10.6876 59.7507 11.0187 60.1638 12.3385 61.4353C16.4255 65.3728 21.5031 68.064 26.9632 69.1866C34.9729 70.8334 42.4958 69.6264 49.0685 65.64C50.2237 64.9394 51.1568 64.2593 51.5789 63.8103L51.8416 63.531L50.7598 63.4496C50.1648 63.4048 49.18 63.26 48.5714 63.1276C47.6588 62.9292 47.2401 62.8999 46.1834 62.9607C45.4787 63.0012 43.4081 63.083 41.5822 63.1426C39.7563 63.2021 37.5023 63.3313 36.5733 63.4297C32.2829 63.8842 28.5992 63.4598 24.6917 62.0608Z" fill="white"/>
</svg>
